<?xml version="1.0" encoding="utf-8"?>
<!-- Generator: Adobe Illustrator 23.1.0, SVG Export Plug-In . SVG Version: 6.00 Build 0)  -->
<svg version="1.1" id="Слой_1" xmlns="http://www.w3.org/2000/svg" xmlns:xlink="http://www.w3.org/1999/xlink" x="0px" y="0px"
	 viewBox="0 0 216.5 216.5" style="enable-background:new 0 0 216.5 216.5;" xml:space="preserve">
<style type="text/css">
	.st0{clip-path:url(#SVGID_2_);fill:none;stroke:#683008;stroke-width:8;stroke-miterlimit:10;}
</style>
<g>
	<defs>
		<rect id="SVGID_1_" x="-88.4" y="-170" width="419.5" height="595.3"/>
	</defs>
	<clipPath id="SVGID_2_">
		<use xlink:href="#SVGID_1_"  style="overflow:visible;"/>
	</clipPath>
	<path class="st0" d="M107.4,5.3c3,0,5.4,0,7.8,0c2.3,0,4.5,0.4,6.7,0.7c2,0.2,3.9,0.5,5.9,0.8c1.6,0.3,3.2,0.6,4.8,1
		c1.3,0.3,2.6,0.6,3.9,1c1.6,0.5,3.3,0.9,4.9,1.5c1,0.4,2.1,0.6,3.1,1c0.9,0.4,1.8,0.6,2.6,1c1,0.5,2,0.9,3,1.3c1,0.4,2,0.9,3,1.4
		c1.6,0.7,3.3,1.5,4.8,2.4c1.3,0.7,2.7,1.5,4,2.3c1.5,1,3.1,1.9,4.6,2.9c1.7,1.1,3.3,2.3,4.9,3.5c1.3,1.1,2.7,2.1,4,3.2
		c0.7,0.6,1.3,1.3,2,1.9c3,2.7,5.8,5.6,8.6,8.5c1.8,1.9,3.4,3.8,5,5.9c1.7,2.3,3.5,4.6,4.9,7.1c1,1.9,2.1,3.7,3.1,5.5
		c1,2,2.1,3.9,3.1,5.8c0.5,1,0.9,2,1.3,3c0.5,1.2,1.1,2.4,1.5,3.7c0.6,1.6,1.1,3.2,1.8,4.8c0.5,1.1,0.7,2.3,1.1,3.4
		c0.4,1.1,0.5,2.3,0.9,3.4c0.5,1.6,0.9,3.3,1.2,4.9c0.6,3,1.2,6,1.4,9.1c0.1,1.3,0.1,2.7,0.4,3.9c0.4,1.8,0.2,3.6,0.2,5.4
		c0.1,2.7,0.1,5.4,0,8.1c-0.1,2-0.2,4-0.6,5.9c-0.1,0.7,0.1,1.5-0.1,2.3c-0.3,1.4-0.5,2.8-0.7,4.2c-0.3,1.6-0.5,3.2-0.9,4.8
		c-0.3,1.2-0.6,2.5-1,3.7c-0.2,0.6-0.2,1.2-0.4,1.9c-0.6,2.4-1.5,4.7-2.3,7.1c-0.5,1.5-1.1,2.9-1.8,4.3c-0.7,1.4-1.2,2.9-1.9,4.3
		c-0.7,1.4-1.4,2.8-2.1,4.2c-1.3,2.7-2.9,5.2-4.5,7.7c-1.1,1.9-2.4,3.6-3.7,5.4c-1.1,1.5-2.3,3-3.4,4.5c-1,1.3-2.1,2.6-3.2,3.8
		c-1.1,1.2-2.2,2.4-3.3,3.4c-1.9,1.8-3.8,3.7-5.8,5.4c-2.1,1.7-4.1,3.4-6.3,5c-2.4,1.7-4.8,3.4-7.3,4.9c-2,1.2-4.1,2.4-6.2,3.5
		c-1.7,0.9-3.3,1.7-5.1,2.5c-2,0.9-4.1,1.8-6.2,2.5c-1.6,0.6-3.2,1.1-4.9,1.7c-1.8,0.6-3.6,1.1-5.5,1.6c-1.4,0.4-2.8,0.6-4.2,1
		c-1.8,0.5-3.6,0.7-5.4,1.1c-1.9,0.4-3.7,0.7-5.7,0.7c-1.5,0.1-3,0.2-4.5,0.5c-0.2,0-0.4,0-0.5,0c-3.7,0-7.4,0-11.2,0
		c-1.1,0-2.2-0.4-3.4-0.4c-1.1,0-2.3-0.1-3.4-0.3c-1.6-0.2-3.3-0.4-4.9-0.7c-1.1-0.3-2.3-0.3-3.5-0.5c-1.3-0.3-2.5-0.7-3.9-1
		c-1-0.2-2-0.5-3-0.8c-1.1-0.3-2.2-0.7-3.3-1c-1.3-0.3-2.6-0.8-3.9-1.3c-2-0.7-4-1.4-5.9-2.3c-2.5-1.2-5-2.2-7.4-3.5
		c-2.9-1.5-5.7-3.1-8.4-4.9c-1.8-1.2-3.7-2.4-5.4-3.7c-0.8-0.6-1.4-1.4-2.2-2c-2.2-1.7-4.2-3.5-6.2-5.4c-1.5-1.4-2.9-2.8-4.4-4.2
		c-2.5-2.3-4.5-4.9-6.6-7.5c-1.4-1.6-2.6-3.4-3.8-5.1c-1.5-2.1-2.8-4.3-4.1-6.6c-1.3-2.3-2.6-4.6-3.8-7c-1.2-2.3-2.3-4.7-3.2-7.2
		c-0.7-2.1-1.6-4.1-2.2-6.2c-0.3-1.1-0.6-2.2-1-3.3c-0.5-1.9-1-3.8-1.5-5.6c-0.3-1.2-0.5-2.3-0.7-3.5c-0.3-1.5-0.5-3.1-0.8-4.6
		c-0.1-0.9-0.2-1.7-0.4-2.6c-0.7-5.7-0.5-11.3-0.5-17c0-1.7,0.1-3.4,0.4-5C6,97.2,6,96.2,6.1,95.2c0.1-1.2,0.4-2.3,0.5-3.5
		c0.2-1.8,0.5-3.5,0.9-5.3c0.2-1.1,0.4-2.3,0.8-3.4c0.5-1.5,0.8-3.2,1.3-4.7c0.8-2.3,1.5-4.5,2.4-6.8c0.9-2.4,1.9-4.8,2.9-7.1
		c1-2.2,2.1-4.4,3.2-6.5c1.2-2.1,2.4-4.2,3.8-6.1c0.6-0.8,1.1-1.8,1.7-2.7c1.1-1.7,2.3-3.2,3.5-4.8c1.1-1.4,2.4-2.8,3.6-4.1
		c1-1.1,1.9-2.3,2.9-3.4c0.7-0.9,1.6-1.6,2.4-2.4c2.1-2.2,4.5-4,6.7-6c1.2-1.1,2.5-2.1,3.8-3.1c0.9-0.6,1.8-1.2,2.8-1.8
		c0.9-0.6,1.8-1.3,2.7-1.8c1.2-0.7,2.4-1.5,3.5-2.3c0.9-0.6,1.9-1.2,2.9-1.7c2.5-1.2,4.8-2.5,7.3-3.6c1.4-0.6,2.7-1.3,4.2-1.7
		c1.5-0.5,3-1.2,4.5-1.7c1.5-0.5,2.9-1.2,4.5-1.5c1.1-0.2,2.2-0.6,3.3-0.9c1.7-0.5,3.4-0.7,5-1.2c1.9-0.5,3.8-0.7,5.7-1
		c1.6-0.2,3.2-0.5,4.8-0.7C101.2,5.1,104.6,5.5,107.4,5.3z M117.2,90.7c0-1.7,0-3.4,0-5c0-3.5,0.1-7.1-0.1-10.6
		c0-0.9-0.3-1.6-0.7-2.3c-0.7-1.2-1.9-1.5-3.2-1.5c-7.8,0-15.5,0-23.3,0c-0.7,0-1.4,0.2-2.1,0.5c-1.5,0.8-2.2,2.8-1.5,4.3
		c0.6,1.2,1.4,2.1,2.2,3.1c1.4,1.8,2.3,3.7,2.8,5.9c0.5,2.2,0.6,4.4,0.6,6.6c0,6.3,0,12.6,0,18.9c0,1.1-0.1,2.2-0.2,3.4
		c-0.3,2.2-2.1,3.1-4.1,2c-1.6-0.9-2.9-2.2-4.1-3.6c-3.7-4.2-6.6-9-9.3-14c-1.6-2.9-3-5.8-4.4-8.8c-1.3-2.9-2.5-5.8-3.6-8.7
		c-0.9-2.2-1.4-4.4-2.5-6.5c-0.9-1.8-2.4-2.9-4.4-3c-5.4-0.1-10.8-0.1-16.2-0.1c-0.7,0-1.4,0.2-2.2,0.3c-1.6,0.4-2.5,2-2.5,3.4
		c0,3,0.9,5.8,1.8,8.6c0.6,2.1,1.4,4.1,2.2,6.1c0.9,2.4,2,4.8,3.1,7.2c1.2,2.6,2.6,5.2,3.9,7.8c1.8,3.5,3.8,6.8,5.9,10.1
		c2,3.3,4.2,6.4,6.4,9.6c2.3,3.3,4.9,6.5,7.7,9.4c3.3,3.4,6.9,6.4,10.8,8.9c3.9,2.5,7.9,4.6,12.3,6.1c3.1,1.1,6.3,1.8,9.6,2.2
		c2.1,0.2,4.2,0.2,6.4,0.2c2-0.1,4-0.2,5.9-0.9c1.4-0.4,2.5-1.8,2.6-3.1c0.1-0.8,0.1-1.7,0.1-2.5c0-4.4,0-8.8,0-13.2
		c0-0.8,0.2-1.6,0.4-2.3c0.1-0.6,0.5-1.1,1-1.4c1.6-0.9,3.2-0.7,4.7-0.1c1.9,0.6,3.6,1.7,5.2,2.9c4.7,3.5,8.8,7.7,12.7,12
		c1.9,2,3.7,4.1,5.6,6c1.8,1.7,3.8,2.7,6.3,2.7c4.6,0,9.3,0,13.9,0c0.8,0,1.6,0,2.4-0.1c2.7-0.4,3.9-2.1,3.7-4.6
		c-0.2-1.9-1.1-3.6-2.1-5.2c-1.5-2.5-3.3-4.9-5.2-7.2c-3.9-4.7-7.9-9.3-12.3-13.5c-1.5-1.4-3-2.8-4-4.6c-0.7-1.2-0.9-2.3-0.3-3.6
		c0.6-1.2,1.3-2.2,2-3.3c2.5-3.6,5-7.2,7.3-10.9c2.7-4.1,5.3-8.3,7.6-12.6c1.7-3.2,3.5-6.5,4.2-10.2c0.3-1.5-0.3-3-1.7-3.6
		c-0.6-0.3-1.2-0.5-1.9-0.5c-5.5,0-11-0.1-16.5,0c-2.5,0-4.3,1.2-5.5,3.4c-0.6,1.1-1.1,2.3-1.6,3.5c-1.1,2.5-2.3,4.8-3.5,7.2
		c-1.4,2.8-3,5.5-4.6,8.1c-2.6,4.2-5.3,8.2-8.6,11.8c-1.6,1.8-3.3,3.5-5.5,4.5c-1.4,0.6-2.6,0.4-3.3-1c-0.4-0.8-0.6-1.7-0.6-2.6
		C117.2,101,117.2,95.9,117.2,90.7z"/>
	<path class="st0" d="M117.2,90.7c0,5.1,0,10.3,0,15.4c0,0.9,0.2,1.8,0.6,2.6c0.7,1.4,1.8,1.6,3.3,1c2.2-1,3.9-2.7,5.5-4.5
		c3.3-3.6,6-7.7,8.6-11.8c1.6-2.6,3.2-5.3,4.6-8.1c1.2-2.4,2.5-4.8,3.5-7.2c0.5-1.2,1-2.4,1.6-3.5c1.1-2.2,3-3.4,5.5-3.4
		c5.5,0,11,0,16.5,0c0.7,0,1.3,0.2,1.9,0.5c1.4,0.6,2,2.2,1.7,3.6c-0.7,3.7-2.4,6.9-4.2,10.2c-2.3,4.3-4.9,8.5-7.6,12.6
		c-2.4,3.7-4.8,7.3-7.3,10.9c-0.7,1-1.4,2.1-2,3.3c-0.6,1.3-0.4,2.4,0.3,3.6c1.1,1.8,2.6,3.2,4,4.6c4.4,4.2,8.5,8.8,12.3,13.5
		c1.9,2.3,3.7,4.6,5.2,7.2c1,1.6,1.9,3.3,2.1,5.2c0.3,2.6-1,4.2-3.7,4.6c-0.8,0.1-1.6,0.1-2.4,0.1c-4.6,0-9.3,0-13.9,0
		c-2.5,0-4.6-1-6.3-2.7c-2-1.9-3.8-4-5.6-6c-4-4.3-8-8.5-12.7-12c-1.6-1.2-3.3-2.3-5.2-2.9c-1.6-0.5-3.2-0.8-4.7,0.1
		c-0.6,0.3-0.9,0.8-1,1.4c-0.2,0.8-0.4,1.5-0.4,2.3c0,4.4,0,8.8,0,13.2c0,0.8,0,1.7-0.1,2.5c-0.1,1.4-1.3,2.7-2.6,3.1
		c-1.9,0.6-3.9,0.8-5.9,0.9c-2.1,0.1-4.3,0.1-6.4-0.2c-3.3-0.4-6.5-1.1-9.6-2.2c-4.4-1.5-8.4-3.6-12.3-6.1
		c-3.9-2.6-7.5-5.6-10.8-8.9c-2.8-2.9-5.4-6.1-7.7-9.4c-2.2-3.2-4.4-6.3-6.4-9.6c-2.1-3.3-4.1-6.7-5.9-10.1
		c-1.4-2.6-2.7-5.1-3.9-7.8c-1.1-2.4-2.1-4.8-3.1-7.2c-0.8-2-1.6-4.1-2.2-6.1c-0.8-2.8-1.8-5.6-1.8-8.6c0-1.4,0.9-3,2.5-3.4
		c0.7-0.2,1.4-0.3,2.2-0.3c5.4,0,10.8,0,16.2,0.1c2,0,3.5,1.2,4.4,3c1.1,2.1,1.7,4.4,2.5,6.5c1.2,2.9,2.3,5.9,3.6,8.7
		c1.4,3,2.8,5.9,4.4,8.8c2.7,4.9,5.6,9.7,9.3,14c1.2,1.4,2.5,2.7,4.1,3.6c2,1.1,3.8,0.2,4.1-2c0.1-1.1,0.2-2.2,0.2-3.4
		c0-6.3,0-12.6,0-18.9c0-2.2-0.1-4.4-0.6-6.6c-0.5-2.2-1.5-4.1-2.8-5.9c-0.8-1-1.6-1.9-2.2-3.1c-0.7-1.5,0-3.6,1.5-4.3
		c0.7-0.3,1.3-0.5,2.1-0.5c7.8,0,15.5,0,23.3,0c1.3,0,2.5,0.3,3.2,1.5c0.4,0.7,0.7,1.5,0.7,2.3c0.1,3.5,0,7.1,0.1,10.6
		C117.2,87.4,117.2,89,117.2,90.7z"/>
</g>
</svg>
