<?xml version="1.0" encoding="utf-8"?>
<!-- Generator: Adobe Illustrator 23.1.0, SVG Export Plug-In . SVG Version: 6.00 Build 0)  -->
<svg version="1.1" id="Слой_1" xmlns="http://www.w3.org/2000/svg" xmlns:xlink="http://www.w3.org/1999/xlink" x="0px" y="0px"
	 viewBox="0 0 214.8 215.5" style="enable-background:new 0 0 214.8 215.5;" xml:space="preserve">
<style type="text/css">
	.st0{clip-path:url(#SVGID_2_);fill:none;stroke:#683008;stroke-width:8;stroke-miterlimit:10;}
</style>
<g>
	<defs>
		<rect id="SVGID_1_" x="-102.2" y="-154.7" width="419.5" height="595.3"/>
	</defs>
	<clipPath id="SVGID_2_">
		<use xlink:href="#SVGID_1_"  style="overflow:visible;"/>
	</clipPath>
	<path class="st0" d="M107.5,210.1C50.6,210.2,4.4,163.9,4.5,107C4.5,50.8,49.7,4,107.6,3.9C164.5,3.8,210.7,50.1,210.7,107
		C210.7,164,164.5,210.1,107.5,210.1z M151.3,64.2c-1.6,0-3.1,0.3-4.5,0.9c-5.9,2.4-11.7,4.8-17.6,7.2c-4.5,1.8-8.9,3.8-13.4,5.7
		c-11.4,4.8-22.9,9.5-34.3,14.2c-5,2.1-10.1,4.1-15.1,6.2c-5,2.1-10.1,4.1-15.1,6.2c-2.2,0.9-4.4,1.9-6.6,2.9
		c-1.3,0.6-2.5,1.4-3.5,2.5c-1.2,1.5-1.2,3,0.1,4.5c0.5,0.6,1.1,1,1.9,1.3c6.2,2.1,12.4,4.1,18.7,6c2.6,0.8,5.2,1.2,7.9,1.1
		c2.5-0.1,4.8-0.7,6.8-2.2c2.1-1.5,4.2-2.9,6.4-4.3c7.9-5.3,15.7-10.6,23.6-15.9c4.8-3.2,9.5-6.5,14.4-9.6c1.5-0.9,3-1.8,4.7-2.3
		c0.8-0.2,1.6-0.7,2.3,0.1c0.7,0.8,0.2,1.7-0.1,2.5c-0.7,1.7-1.9,3.1-3.2,4.3c-8.1,8-16.4,15.9-24.7,23.7c-1.3,1.2-2.5,2.4-3.9,3.6
		c-1,0.8-2,1.6-2.9,2.5c-2.6,2.5-3,6.4,0.2,9c0.3,0.3,0.6,0.5,1,0.8c3.9,3.2,8.1,6.1,12.3,8.9c6.1,4.1,12.2,8.1,18.3,12.2
		c1.7,1.1,3.5,2.1,5.4,3c1.5,0.7,3.1,1.2,4.7,1.5c3.9,0.8,6.7-0.7,8.2-4.3c0.5-1.1,0.8-2.2,1-3.4c1-6.2,2-12.3,2.9-18.5
		c1.5-9.4,3-18.7,4.5-28.1c1.5-9.9,3-19.8,4.5-29.6c0.3-2.2,0.6-4.4,0.7-6.6c0-1.2-0.2-2.3-0.7-3.3
		C155.1,64.6,153.3,64.1,151.3,64.2z"/>
	<path class="st0" d="M151.3,64.2c2-0.1,3.8,0.4,4.9,2.4c0.6,1,0.7,2.1,0.7,3.3c-0.1,2.2-0.4,4.4-0.7,6.6c-1.5,9.9-3,19.8-4.5,29.6
		c-1.5,9.4-3,18.7-4.5,28.1c-1,6.2-2,12.3-2.9,18.5c-0.2,1.2-0.5,2.3-1,3.4c-1.6,3.6-4.4,5.1-8.2,4.3c-1.6-0.3-3.2-0.9-4.7-1.5
		c-1.9-0.8-3.7-1.8-5.4-3c-6.1-4.1-12.2-8.1-18.3-12.2c-4.2-2.8-8.3-5.7-12.3-8.9c-0.3-0.3-0.6-0.5-1-0.8c-3.2-2.6-2.8-6.5-0.2-9
		c0.9-0.9,1.9-1.7,2.9-2.5c1.3-1.1,2.6-2.4,3.9-3.6c8.3-7.8,16.6-15.6,24.7-23.7c1.3-1.3,2.5-2.7,3.2-4.3c0.3-0.8,0.9-1.7,0.1-2.5
		c-0.7-0.7-1.6-0.3-2.3-0.1c-1.7,0.5-3.2,1.4-4.7,2.3c-4.9,3.1-9.6,6.4-14.4,9.6c-7.9,5.3-15.7,10.6-23.6,15.9
		c-2.1,1.4-4.3,2.8-6.4,4.3c-2.1,1.5-4.4,2-6.8,2.2c-2.7,0.1-5.3-0.3-7.9-1.1c-6.3-1.9-12.5-3.9-18.7-6c-0.8-0.3-1.4-0.7-1.9-1.3
		c-1.3-1.5-1.3-3-0.1-4.5c0.9-1.1,2.2-1.9,3.5-2.5c2.2-1,4.4-2,6.6-2.9c5-2.1,10.1-4.2,15.1-6.2c5-2.1,10.1-4.1,15.1-6.2
		c11.4-4.7,22.9-9.4,34.3-14.2c4.5-1.9,8.9-3.8,13.4-5.7c5.8-2.4,11.7-4.8,17.6-7.2C148.2,64.5,149.7,64.2,151.3,64.2z"/>
</g>
</svg>
